<mxfile host="app.diagrams.net" modified="2023-01-23T17:21:21.928Z" agent="5.0 (Macintosh; Intel Mac OS X 10_15_7) AppleWebKit/537.36 (KHTML, like Gecko) Chrome/109.0.0.0 Safari/537.36" etag="TFURlb44Xn4gjJKPFKyQ" version="20.8.10" type="github">
  <diagram name="PÃ¡gina-1" id="u4Jrn8bKuFq-XJpukU2w">
    <mxGraphModel dx="1234" dy="803" grid="1" gridSize="10" guides="1" tooltips="1" connect="1" arrows="1" fold="1" page="1" pageScale="1" pageWidth="1169" pageHeight="827" math="0" shadow="0">
      <root>
        <mxCell id="0" />
        <mxCell id="1" parent="0" />
        <mxCell id="uDIJ9ZYgRCS1Mg3lUjn9-3" style="edgeStyle=orthogonalEdgeStyle;rounded=0;orthogonalLoop=1;jettySize=auto;html=1;" edge="1" parent="1" source="uDIJ9ZYgRCS1Mg3lUjn9-1" target="uDIJ9ZYgRCS1Mg3lUjn9-2">
          <mxGeometry relative="1" as="geometry" />
        </mxCell>
        <mxCell id="uDIJ9ZYgRCS1Mg3lUjn9-1" value="User generate a menu" style="rounded=1;whiteSpace=wrap;html=1;fillColor=#fff2cc;strokeColor=#d6b656;" vertex="1" parent="1">
          <mxGeometry x="40" y="260" width="110" height="60" as="geometry" />
        </mxCell>
        <mxCell id="uDIJ9ZYgRCS1Mg3lUjn9-13" style="edgeStyle=orthogonalEdgeStyle;rounded=0;orthogonalLoop=1;jettySize=auto;html=1;" edge="1" parent="1" source="uDIJ9ZYgRCS1Mg3lUjn9-2" target="uDIJ9ZYgRCS1Mg3lUjn9-4">
          <mxGeometry relative="1" as="geometry" />
        </mxCell>
        <mxCell id="uDIJ9ZYgRCS1Mg3lUjn9-14" style="edgeStyle=orthogonalEdgeStyle;rounded=0;orthogonalLoop=1;jettySize=auto;html=1;" edge="1" parent="1" source="uDIJ9ZYgRCS1Mg3lUjn9-2" target="uDIJ9ZYgRCS1Mg3lUjn9-5">
          <mxGeometry relative="1" as="geometry" />
        </mxCell>
        <mxCell id="uDIJ9ZYgRCS1Mg3lUjn9-2" value="Load menu results" style="rounded=0;whiteSpace=wrap;html=1;fillColor=#f8cecc;strokeColor=#b85450;" vertex="1" parent="1">
          <mxGeometry x="230" y="260" width="120" height="60" as="geometry" />
        </mxCell>
        <mxCell id="uDIJ9ZYgRCS1Mg3lUjn9-4" value="User generate a new menu" style="rounded=0;whiteSpace=wrap;html=1;fillColor=#d5e8d4;strokeColor=#82b366;" vertex="1" parent="1">
          <mxGeometry x="360" y="180" width="120" height="60" as="geometry" />
        </mxCell>
        <mxCell id="uDIJ9ZYgRCS1Mg3lUjn9-15" style="edgeStyle=orthogonalEdgeStyle;rounded=0;orthogonalLoop=1;jettySize=auto;html=1;" edge="1" parent="1" source="uDIJ9ZYgRCS1Mg3lUjn9-5" target="uDIJ9ZYgRCS1Mg3lUjn9-6">
          <mxGeometry relative="1" as="geometry" />
        </mxCell>
        <mxCell id="uDIJ9ZYgRCS1Mg3lUjn9-5" value="User edit the menu" style="rounded=0;whiteSpace=wrap;html=1;fillColor=#d5e8d4;strokeColor=#82b366;" vertex="1" parent="1">
          <mxGeometry x="360" y="330" width="120" height="60" as="geometry" />
        </mxCell>
        <mxCell id="uDIJ9ZYgRCS1Mg3lUjn9-16" style="edgeStyle=orthogonalEdgeStyle;rounded=0;orthogonalLoop=1;jettySize=auto;html=1;" edge="1" parent="1" source="uDIJ9ZYgRCS1Mg3lUjn9-6" target="uDIJ9ZYgRCS1Mg3lUjn9-7">
          <mxGeometry relative="1" as="geometry" />
        </mxCell>
        <mxCell id="uDIJ9ZYgRCS1Mg3lUjn9-6" value="User search recipes&amp;nbsp;" style="rounded=1;whiteSpace=wrap;html=1;fillColor=#fff2cc;strokeColor=#d6b656;" vertex="1" parent="1">
          <mxGeometry x="540" y="330" width="120" height="60" as="geometry" />
        </mxCell>
        <mxCell id="uDIJ9ZYgRCS1Mg3lUjn9-17" style="edgeStyle=orthogonalEdgeStyle;rounded=0;orthogonalLoop=1;jettySize=auto;html=1;entryX=0.5;entryY=1;entryDx=0;entryDy=0;" edge="1" parent="1" source="uDIJ9ZYgRCS1Mg3lUjn9-7" target="uDIJ9ZYgRCS1Mg3lUjn9-9">
          <mxGeometry relative="1" as="geometry" />
        </mxCell>
        <mxCell id="uDIJ9ZYgRCS1Mg3lUjn9-18" style="edgeStyle=orthogonalEdgeStyle;rounded=0;orthogonalLoop=1;jettySize=auto;html=1;" edge="1" parent="1" source="uDIJ9ZYgRCS1Mg3lUjn9-7" target="uDIJ9ZYgRCS1Mg3lUjn9-10">
          <mxGeometry relative="1" as="geometry" />
        </mxCell>
        <mxCell id="uDIJ9ZYgRCS1Mg3lUjn9-19" style="edgeStyle=orthogonalEdgeStyle;rounded=0;orthogonalLoop=1;jettySize=auto;html=1;" edge="1" parent="1" source="uDIJ9ZYgRCS1Mg3lUjn9-7" target="uDIJ9ZYgRCS1Mg3lUjn9-11">
          <mxGeometry relative="1" as="geometry" />
        </mxCell>
        <mxCell id="uDIJ9ZYgRCS1Mg3lUjn9-7" value="Load search results" style="rounded=0;whiteSpace=wrap;html=1;fillColor=#f8cecc;strokeColor=#b85450;" vertex="1" parent="1">
          <mxGeometry x="710" y="330" width="130" height="60" as="geometry" />
        </mxCell>
        <mxCell id="uDIJ9ZYgRCS1Mg3lUjn9-9" value="Render search results" style="rounded=0;whiteSpace=wrap;html=1;fillColor=#d5e8d4;strokeColor=#82b366;" vertex="1" parent="1">
          <mxGeometry x="880" y="250" width="120" height="60" as="geometry" />
        </mxCell>
        <mxCell id="uDIJ9ZYgRCS1Mg3lUjn9-10" value="Render pagination buttons" style="rounded=0;whiteSpace=wrap;html=1;fillColor=#d5e8d4;strokeColor=#82b366;" vertex="1" parent="1">
          <mxGeometry x="880" y="400" width="120" height="60" as="geometry" />
        </mxCell>
        <mxCell id="uDIJ9ZYgRCS1Mg3lUjn9-12" style="edgeStyle=orthogonalEdgeStyle;rounded=0;orthogonalLoop=1;jettySize=auto;html=1;" edge="1" parent="1" source="uDIJ9ZYgRCS1Mg3lUjn9-11" target="uDIJ9ZYgRCS1Mg3lUjn9-2">
          <mxGeometry relative="1" as="geometry">
            <Array as="points">
              <mxPoint x="1080" y="100" />
              <mxPoint x="290" y="100" />
            </Array>
          </mxGeometry>
        </mxCell>
        <mxCell id="uDIJ9ZYgRCS1Mg3lUjn9-11" value="User select the recipe" style="rounded=1;whiteSpace=wrap;html=1;" vertex="1" parent="1">
          <mxGeometry x="1020" y="330" width="120" height="60" as="geometry" />
        </mxCell>
      </root>
    </mxGraphModel>
  </diagram>
</mxfile>
